<?xml version="1.0" encoding="UTF-8" standalone="no"?>
<svg
   xmlns:dc="http://purl.org/dc/elements/1.1/"
   xmlns:cc="http://creativecommons.org/ns#"
   xmlns:rdf="http://www.w3.org/1999/02/22-rdf-syntax-ns#"
   xmlns:svg="http://www.w3.org/2000/svg"
   xmlns="http://www.w3.org/2000/svg"
   xmlns:sodipodi="http://sodipodi.sourceforge.net/DTD/sodipodi-0.dtd"
   xmlns:inkscape="http://www.inkscape.org/namespaces/inkscape"
   data-name="Capa 1"
   viewBox="0 0 500 500"
   id="svg"
   version="1.1"
   sodipodi:docname="circle.svg"
   inkscape:version="0.92.3 (2405546, 2018-03-11)">
  <metadata
     id="metadata27">
    <rdf:RDF>
      <cc:Work
         rdf:about="">
        <dc:format>image/svg+xml</dc:format>
        <dc:type
           rdf:resource="http://purl.org/dc/dcmitype/StillImage" />
      </cc:Work>
    </rdf:RDF>
  </metadata>
  <sodipodi:namedview
     pagecolor="#ffffff"
     bordercolor="#666666"
     borderopacity="1"
     objecttolerance="10"
     gridtolerance="10"
     guidetolerance="10"
     inkscape:pageopacity="0"
     inkscape:pageshadow="2"
     inkscape:window-width="1853"
     inkscape:window-height="1025"
     id="namedview25"
     showgrid="false"
     inkscape:zoom="1.888"
     inkscape:cx="272.23949"
     inkscape:cy="253.71584"
     inkscape:window-x="67"
     inkscape:window-y="27"
     inkscape:window-maximized="1"
     inkscape:current-layer="svg" />
  <defs
     id="defs4">
    <style
       id="style2">
			.cls-1{fill:#bf00b9;}
			.cls-2{
        font-size: 22px;
        fill: #ffffff;
        font-family: &quot;Montserrat&quot;, Arial, sans-serif;
        font-weight:700;
        }
			.cls-3{letter-spacing:-0.01em;}
			.cls-4{letter-spacing:-0.02em;}
			.cls-5{fill:#ffd000;}
			.cls-6{fill:red;}
			.cls-7{letter-spacing:-0.01em;}
			.cls-8{fill:#0074c3;}


            #svg {
              display: inline-block;
              vertical-align: middle;
              fill: #ffd000;
            }
            
            #svg .cls-1 {
              animation: violet 4s linear infinite;
              animation-delay: 0s;
            }

            #svg .cls-5 {
              animation: yellow 4s linear infinite;
              animation-delay: 1s;
            }

            #svg .cls-8 {  
              animation: blue 4s linear infinite  ;
              animation-delay: 2s  ;
            }
    
            #svg .cls-6   {  
              animation: red 4s linear infinite  ;
              animation-delay: 3s  ;
            }
            
            @keyframes violet {
              0% {
               fill: #bf00b9;
              }
              10% {
                fill: #f463f0;
              }
              20% {
                fill:  #bf00b9;
              }
              100% {
                fill: #bf00b9; 
              }
            }

            @keyframes yellow {
              0% {
                fill: #ffd000;
              }
              10% {
                fill: #ffec99;
              }
              20% {
                fill: #ffd000;
              }
              100% {
               fill: #ffd000;
              }
            }

            @keyframes blue {
 	        0% {
	          fill: #0074c3;
	        }
	10% {
	  fill: #89c5ee
	}
	20% {
	  fill: #0074c3;
	}
	100% {
	  fill: #0074c3;
	}
}

@keyframes red {
	0% {
	 fill: #ff0000;
	}
	10% {
	  fill: #ff7575;
	}
	20% {
	  fill: #ff0000;
	}
	100% {
	  fill: #ff0000;
	}
}


@keyframes pweek {
  0% {
    fill: #ffd000;
  }
  25% {
    fill: #0074c3;
  }
  50% {
    fill: #ff0000;
  }
  75% {
    fill: #bf00b9;
  }
  100% {
    fill: #ffd000;
  }
}



		</style>
  </defs>
  <title
     id="title6">circulo</title>
  <path
     class="cls-1"
     d="M251,249,120.34,119.81V84.08H84.19l-7-7-.34-.35-.36.34h0l-.66.64h0c-46.41,45.5-72,107-72,173.23,0,65.7,25.39,127,71.5,172.75h0l1.11,1.1,0,0h0l.35.35,7.34-7.42V381.64h35.73Z"
     id="path8" />
  <g
     aria-label="Evaluación"
     style="font-weight:700;font-size:22px;font-family:Montserrat, Arial, sans-serif;fill:#ffffff"
     id="text10">
    <path
       d="m 58.21064,259.83363 v 2.86 h -11.924 v -15.4 h 11.638 v 2.86 h -8.096 v 3.344 h 7.15 v 2.772 h -7.15 v 3.564 z"
       style="font-weight:700;font-size:22px;font-family:Montserrat, Arial, sans-serif;fill:#ffffff"
       id="path49" />
    <path
       d="m 72.444984,250.85763 -4.994,11.836 h -3.542 l -4.972,-11.836 h 3.542 l 3.278,8.052 3.388,-8.052 z"
       style="font-weight:700;font-size:22px;font-family:Montserrat, Arial, sans-serif;fill:#ffffff"
       id="path51" />
    <path
       d="m 78.232702,250.68163 q 2.75,0 4.224,1.32 1.474,1.298 1.474,3.938 v 6.754 h -3.212 v -1.474 q -0.968,1.65 -3.608,1.65 -1.364,0 -2.376,-0.462 -0.99,-0.462 -1.518,-1.276 -0.528,-0.814 -0.528,-1.848 0,-1.65 1.232,-2.596 1.254,-0.946 3.85,-0.946 h 2.728 q 0,-1.122 -0.682,-1.716 -0.682,-0.616 -2.046,-0.616 -0.946,0 -1.87,0.308 -0.902,0.286 -1.54,0.792 l -1.232,-2.398 q 0.968,-0.682 2.31,-1.056 1.364,-0.374 2.794,-0.374 z m -0.264,9.878 q 0.88,0 1.562,-0.396 0.682,-0.418 0.968,-1.21 v -1.21 h -2.354 q -2.112,0 -2.112,1.386 0,0.66 0.506,1.056 0.528,0.374 1.43,0.374 z"
       style="font-weight:700;font-size:22px;font-family:Montserrat, Arial, sans-serif;fill:#ffffff"
       id="path53" />
    <path
       d="m 87.036827,246.36963 h 3.432 v 16.324 h -3.432 z"
       style="font-weight:700;font-size:22px;font-family:Montserrat, Arial, sans-serif;fill:#ffffff"
       id="path55" />
    <path
       d="m 105.57801,250.85763 v 11.836 h -3.256 v -1.408 q -0.682,0.77 -1.628,1.188 -0.945995,0.396 -2.045995,0.396 -2.332,0 -3.696,-1.342 -1.364,-1.342 -1.364,-3.982 v -6.688 h 3.432 v 6.182 q 0,2.86 2.398,2.86 1.231995,0 1.979995,-0.792 0.748,-0.814 0.748,-2.398 v -5.852 z"
       style="font-weight:700;font-size:22px;font-family:Montserrat, Arial, sans-serif;fill:#ffffff"
       id="path57" />
    <path
       d="m 113.55301,250.68163 q 2.75,0 4.224,1.32 1.474,1.298 1.474,3.938 v 6.754 h -3.212 v -1.474 q -0.968,1.65 -3.608,1.65 -1.364,0 -2.376,-0.462 -0.99,-0.462 -1.518,-1.276 -0.528,-0.814 -0.528,-1.848 0,-1.65 1.232,-2.596 1.254,-0.946 3.85,-0.946 h 2.728 q 0,-1.122 -0.682,-1.716 -0.682,-0.616 -2.046,-0.616 -0.946,0 -1.87,0.308 -0.902,0.286 -1.54,0.792 l -1.232,-2.398 q 0.968,-0.682 2.31,-1.056 1.364,-0.374 2.794,-0.374 z m -0.264,9.878 q 0.88,0 1.562,-0.396 0.682,-0.418 0.968,-1.21 v -1.21 h -2.354 q -2.112,0 -2.112,1.386 0,0.66 0.506,1.056 0.528,0.374 1.43,0.374 z"
       style="font-weight:700;font-size:22px;font-family:Montserrat, Arial, sans-serif;fill:#ffffff"
       id="path59" />
    <path
       d="m 128.20605,262.86963 q -1.892,0 -3.41,-0.77 -1.496,-0.792 -2.354,-2.178 -0.836,-1.386 -0.836,-3.146 0,-1.76 0.836,-3.146 0.858,-1.386 2.354,-2.156 1.518,-0.792 3.41,-0.792 1.87,0 3.256,0.792 1.408,0.77 2.046,2.222 l -2.662,1.43 q -0.924,-1.628 -2.662,-1.628 -1.342,0 -2.222,0.88 -0.88,0.88 -0.88,2.398 0,1.518 0.88,2.398 0.88,0.88 2.222,0.88 1.76,0 2.662,-1.628 l 2.662,1.452 q -0.638,1.408 -2.046,2.2 -1.386,0.792 -3.256,0.792 z"
       style="font-weight:700;font-size:22px;font-family:Montserrat, Arial, sans-serif;fill:#ffffff"
       id="path61" />
    <path
       d="m 135.50558,250.85763 h 3.432 v 11.836 h -3.432 z m 1.716,-1.65 q -0.946,0 -1.54,-0.55 -0.594,-0.55 -0.594,-1.364 0,-0.814 0.594,-1.364 0.594,-0.55 1.54,-0.55 0.946,0 1.54,0.528 0.594,0.528 0.594,1.32 0,0.858 -0.594,1.43 -0.594,0.55 -1.54,0.55 z"
       style="font-weight:700;font-size:22px;font-family:Montserrat, Arial, sans-serif;fill:#ffffff"
       id="path63" />
    <path
       d="m 147.75476,262.86963 q -1.87,0 -3.366,-0.77 -1.474,-0.792 -2.31,-2.178 -0.836,-1.386 -0.836,-3.146 0,-1.76 0.836,-3.146 0.836,-1.386 2.31,-2.156 1.496,-0.792 3.366,-0.792 1.87,0 3.344,0.792 1.474,0.77 2.31,2.156 0.836,1.386 0.836,3.146 0,1.76 -0.836,3.146 -0.836,1.386 -2.31,2.178 -1.474,0.77 -3.344,0.77 z m 0,-2.816 q 1.32,0 2.156,-0.88 0.858,-0.902 0.858,-2.398 0,-1.496 -0.858,-2.376 -0.836,-0.902 -2.156,-0.902 -1.32,0 -2.178,0.902 -0.858,0.88 -0.858,2.376 0,1.496 0.858,2.398 0.858,0.88 2.178,0.88 z m 0.924,-13.882 h 3.696 l -3.982,3.168 h -2.684 z"
       style="font-weight:700;font-size:22px;font-family:Montserrat, Arial, sans-serif;fill:#ffffff"
       id="path65" />
    <path
       d="m 163.7113,250.68163 q 2.2,0 3.542,1.32 1.364,1.32 1.364,3.916 v 6.776 h -3.432 v -6.248 q 0,-1.408 -0.616,-2.09 -0.616,-0.704 -1.782,-0.704 -1.298,0 -2.068,0.814 -0.77,0.792 -0.77,2.376 v 5.852 h -3.432 v -11.836 h 3.278 v 1.386 q 0.682,-0.748 1.694,-1.144 1.012,-0.418 2.222,-0.418 z"
       style="font-weight:700;font-size:22px;font-family:Montserrat, Arial, sans-serif;fill:#ffffff"
       id="path67" />
  </g>
  <path
     class="cls-5"
     d="M251,249,382.89,118.6h31.9V87.06l10.09-10,.35-.35-.34-.36h0l-.64-.66h0c-45.5-46.41-107-72-173.23-72-65.7,0-127,25.39-172.76,71.5h0l-1.09,1.11,0,0h0l-.35.35,7.42,7.34h36.15v35.73Z"
     id="path12" />
  <g
     aria-label="Planificación"
     style="font-weight:700;font-size:22px;font-family:Montserrat, Arial, sans-serif;fill:#ffffff"
     id="text14">
    <path
       d="m 193.492,98.858667 q 2.046,0 3.542,0.682 1.518,0.682003 2.332,1.936003 0.814,1.254 0.814,2.97 0,1.694 -0.814,2.97 -0.814,1.254 -2.332,1.936 -1.496,0.66 -3.542,0.66 h -3.102 v 4.246 h -3.564 V 98.858667 Z m -0.198,8.250003 q 1.606,0 2.442,-0.682 0.836,-0.704 0.836,-1.98 0,-1.298 -0.836,-1.98 -0.836,-0.704 -2.442,-0.704 h -2.904 v 5.346 z"
       style="font-weight:700;font-size:22px;font-family:Montserrat, Arial, sans-serif;fill:#ffffff"
       id="path24" />
    <path
       d="m 202.69728,97.934667 h 3.432 v 16.324003 h -3.432 z"
       style="font-weight:700;font-size:22px;font-family:Montserrat, Arial, sans-serif;fill:#ffffff"
       id="path26" />
    <path
       d="m 214.08847,102.24667 q 2.75,0 4.224,1.32 1.474,1.298 1.474,3.938 v 6.754 h -3.212 v -1.474 q -0.968,1.65 -3.608,1.65 -1.364,0 -2.376,-0.462 -0.99,-0.462 -1.518,-1.276 -0.528,-0.814 -0.528,-1.848 0,-1.65 1.232,-2.596 1.254,-0.946 3.85,-0.946 h 2.728 q 0,-1.122 -0.682,-1.716 -0.682,-0.616 -2.046,-0.616 -0.946,0 -1.87,0.308 -0.902,0.286 -1.54,0.792 l -1.232,-2.398 q 0.968,-0.682 2.31,-1.056 1.364,-0.374 2.794,-0.374 z m -0.264,9.878 q 0.88,0 1.562,-0.396 0.682,-0.418 0.968,-1.21 v -1.21 h -2.354 q -2.112,0 -2.112,1.386 0,0.66 0.506,1.056 0.528,0.374 1.43,0.374 z"
       style="font-weight:700;font-size:22px;font-family:Montserrat, Arial, sans-serif;fill:#ffffff"
       id="path28" />
    <path
       d="m 230.08659,102.24667 q 2.2,0 3.542,1.32 1.364,1.32 1.364,3.916 v 6.776 h -3.432 v -6.248 q 0,-1.408 -0.616,-2.09 -0.616,-0.704 -1.782,-0.704 -1.298,0 -2.068,0.814 -0.77,0.792 -0.77,2.376 v 5.852 h -3.432 v -11.836 h 3.278 v 1.386 q 0.682,-0.748 1.694,-1.144 1.012,-0.418 2.222,-0.418 z"
       style="font-weight:700;font-size:22px;font-family:Montserrat, Arial, sans-serif;fill:#ffffff"
       id="path30" />
    <path
       d="m 238.10353,102.42267 h 3.432 v 11.836 h -3.432 z m 1.716,-1.65 q -0.946,0 -1.54,-0.55 -0.594,-0.550003 -0.594,-1.364003 0,-0.814 0.594,-1.364 0.594,-0.55 1.54,-0.55 0.946,0 1.54,0.528 0.594,0.528 0.594,1.32 0,0.858 -0.594,1.430003 -0.594,0.55 -1.54,0.55 z"
       style="font-weight:700;font-size:22px;font-family:Montserrat, Arial, sans-serif;fill:#ffffff"
       id="path32" />
    <path
       d="m 248.48272,102.68667 h 3.036 v 2.64 h -2.948 v 8.932 h -3.432 v -8.932 h -1.826 v -2.64 h 1.826 v -0.528 q 0,-2.024 1.188,-3.212003 1.21,-1.188 3.388,-1.188 0.77,0 1.452,0.176 0.704,0.154 1.166,0.462 l -0.902,2.486003 q -0.594,-0.418 -1.386,-0.418 -1.562,0 -1.562,1.716 z m 6.512,-0.264 h 3.432 v 11.836 h -3.432 z m 1.716,-1.65 q -0.946,0 -1.54,-0.55 -0.594,-0.550003 -0.594,-1.364003 0,-0.814 0.594,-1.364 0.594,-0.55 1.54,-0.55 0.946,0 1.54,0.528 0.594,0.528 0.594,1.32 0,0.858 -0.594,1.430003 -0.594,0.55 -1.54,0.55 z"
       style="font-weight:700;font-size:22px;font-family:Montserrat, Arial, sans-serif;fill:#ffffff"
       id="path34" />
    <path
       d="m 267.32744,114.43467 q -1.892,0 -3.41,-0.77 -1.496,-0.792 -2.354,-2.178 -0.836,-1.386 -0.836,-3.146 0,-1.76 0.836,-3.146 0.858,-1.386 2.354,-2.156 1.518,-0.792 3.41,-0.792 1.87,0 3.256,0.792 1.408,0.77 2.046,2.222 l -2.662,1.43 q -0.924,-1.628 -2.662,-1.628 -1.342,0 -2.222,0.88 -0.88,0.88 -0.88,2.398 0,1.518 0.88,2.398 0.88,0.88 2.222,0.88 1.76,0 2.662,-1.628 l 2.662,1.452 q -0.638,1.408 -2.046,2.2 -1.386,0.792 -3.256,0.792 z"
       style="font-weight:700;font-size:22px;font-family:Montserrat, Arial, sans-serif;fill:#ffffff"
       id="path36" />
    <path
       d="m 279.40097,102.24667 q 2.75,0 4.224,1.32 1.474,1.298 1.474,3.938 v 6.754 h -3.212 v -1.474 q -0.968,1.65 -3.608,1.65 -1.364,0 -2.376,-0.462 -0.99,-0.462 -1.518,-1.276 -0.528,-0.814 -0.528,-1.848 0,-1.65 1.232,-2.596 1.254,-0.946 3.85,-0.946 h 2.728 q 0,-1.122 -0.682,-1.716 -0.682,-0.616 -2.046,-0.616 -0.946,0 -1.87,0.308 -0.902,0.286 -1.54,0.792 l -1.232,-2.398 q 0.968,-0.682 2.31,-1.056 1.364,-0.374 2.794,-0.374 z m -0.264,9.878 q 0.88,0 1.562,-0.396 0.682,-0.418 0.968,-1.21 v -1.21 h -2.354 q -2.112,0 -2.112,1.386 0,0.66 0.506,1.056 0.528,0.374 1.43,0.374 z"
       style="font-weight:700;font-size:22px;font-family:Montserrat, Arial, sans-serif;fill:#ffffff"
       id="path38" />
    <path
       d="m 294.054,114.43467 q -1.892,0 -3.41,-0.77 -1.496,-0.792 -2.354,-2.178 -0.836,-1.386 -0.836,-3.146 0,-1.76 0.836,-3.146 0.858,-1.386 2.354,-2.156 1.518,-0.792 3.41,-0.792 1.87,0 3.256,0.792 1.408,0.77 2.046,2.222 l -2.662,1.43 q -0.924,-1.628 -2.662,-1.628 -1.342,0 -2.222,0.88 -0.88,0.88 -0.88,2.398 0,1.518 0.88,2.398 0.88,0.88 2.222,0.88 1.76,0 2.662,-1.628 l 2.662,1.452 q -0.638,1.408 -2.046,2.2 -1.386,0.792 -3.256,0.792 z"
       style="font-weight:700;font-size:22px;font-family:Montserrat, Arial, sans-serif;fill:#ffffff"
       id="path40" />
    <path
       d="m 301.35353,102.42267 h 3.432 v 11.836 h -3.432 z m 1.716,-1.65 q -0.946,0 -1.54,-0.55 -0.594,-0.550003 -0.594,-1.364003 0,-0.814 0.594,-1.364 0.594,-0.55 1.54,-0.55 0.946,0 1.54,0.528 0.594,0.528 0.594,1.32 0,0.858 -0.594,1.430003 -0.594,0.55 -1.54,0.55 z"
       style="font-weight:700;font-size:22px;font-family:Montserrat, Arial, sans-serif;fill:#ffffff"
       id="path42" />
    <path
       d="m 313.60272,114.43467 q -1.87,0 -3.366,-0.77 -1.474,-0.792 -2.31,-2.178 -0.836,-1.386 -0.836,-3.146 0,-1.76 0.836,-3.146 0.836,-1.386 2.31,-2.156 1.496,-0.792 3.366,-0.792 1.87,0 3.344,0.792 1.474,0.77 2.31,2.156 0.836,1.386 0.836,3.146 0,1.76 -0.836,3.146 -0.836,1.386 -2.31,2.178 -1.474,0.77 -3.344,0.77 z m 0,-2.816 q 1.32,0 2.156,-0.88 0.858,-0.902 0.858,-2.398 0,-1.496 -0.858,-2.376 -0.836,-0.902 -2.156,-0.902 -1.32,0 -2.178,0.902 -0.858,0.88 -0.858,2.376 0,1.496 0.858,2.398 0.858,0.88 2.178,0.88 z m 0.924,-13.882003 h 3.696 l -3.982,3.168003 h -2.684 z"
       style="font-weight:700;font-size:22px;font-family:Montserrat, Arial, sans-serif;fill:#ffffff"
       id="path44" />
    <path
       d="m 329.55925,102.24667 q 2.2,0 3.542,1.32 1.364,1.32 1.364,3.916 v 6.776 h -3.432 v -6.248 q 0,-1.408 -0.616,-2.09 -0.616,-0.704 -1.782,-0.704 -1.298,0 -2.068,0.814 -0.77,0.792 -0.77,2.376 v 5.852 h -3.432 v -11.836 h 3.278 v 1.386 q 0.682,-0.748 1.694,-1.144 1.012,-0.418 2.222,-0.418 z"
       style="font-weight:700;font-size:22px;font-family:Montserrat, Arial, sans-serif;fill:#ffffff"
       id="path46" />
  </g>
  <path
     class="cls-6"
     d="M412.92,412.77H381.38V380.86L251,249,118.12,381.38l-33.92.26v36.15l-7,7.1-.31.32h0c45.51,46.41,106.9,71,173.15,71,65.7,0,127.45-26.89,173.23-73l-1.6-1.62Z"
     id="path16" />
  <g
     aria-label="Replanteamiento"
     style="font-weight:700;font-size:22px;font-family:Montserrat, Arial, sans-serif;text-anchor:start;fill:#ffffff"
     id="text18">
    <path
       d="m 165.638,408.44031 -2.97,-4.29 h -0.176 -3.102 v 4.29 h -3.564 v -15.4 h 6.666 q 2.046,0 3.542,0.682 1.518,0.682 2.332,1.936 0.814,1.254 0.814,2.97 0,1.716 -0.836,2.97 -0.814,1.232 -2.332,1.892 l 3.454,4.95 z m -0.066,-9.812 q 0,-1.298 -0.836,-1.98 -0.836,-0.704 -2.442,-0.704 h -2.904 v 5.368 h 2.904 q 1.606,0 2.442,-0.704 0.836,-0.704 0.836,-1.98 z"
       style="font-weight:700;font-size:22px;font-family:Montserrat, Arial, sans-serif;text-anchor:start;fill:#ffffff"
       id="path99" />
    <path
       d="m 183.33425,402.56631 q 0,0.066 -0.066,0.924 h -8.954 q 0.242,1.1 1.144,1.738 0.902,0.638 2.244,0.638 0.924,0 1.628,-0.264 0.726,-0.286 1.342,-0.88 l 1.826,1.98 q -1.672,1.914 -4.884,1.914 -2.002,0 -3.542,-0.77 -1.54,-0.792 -2.376,-2.178 -0.836,-1.386 -0.836,-3.146 0,-1.738 0.814,-3.124 0.836,-1.408 2.266,-2.178 1.452,-0.792 3.234,-0.792 1.738,0 3.146,0.748 1.408,0.748 2.2,2.156 0.814,1.386 0.814,3.234 z m -6.138,-3.542 q -1.166,0 -1.958,0.66 -0.792,0.66 -0.968,1.804 h 5.83 q -0.176,-1.122 -0.968,-1.782 -0.792,-0.682 -1.936,-0.682 z"
       style="font-weight:700;font-size:22px;font-family:Montserrat, Arial, sans-serif;text-anchor:start;fill:#ffffff"
       id="path101" />
    <path
       d="m 192.61516,396.42831 q 1.65,0 2.992,0.77 1.364,0.748 2.134,2.134 0.77,1.364 0.77,3.19 0,1.826 -0.77,3.212 -0.77,1.364 -2.134,2.134 -1.342,0.748 -2.992,0.748 -2.266,0 -3.564,-1.43 v 5.522 h -3.432 v -16.104 h 3.278 v 1.364 q 1.276,-1.54 3.718,-1.54 z m -0.594,9.372 q 1.32,0 2.156,-0.88 0.858,-0.902 0.858,-2.398 0,-1.496 -0.858,-2.376 -0.836,-0.902 -2.156,-0.902 -1.32,0 -2.178,0.902 -0.836,0.88 -0.836,2.376 0,1.496 0.836,2.398 0.858,0.88 2.178,0.88 z"
       style="font-weight:700;font-size:22px;font-family:Montserrat, Arial, sans-serif;text-anchor:start;fill:#ffffff"
       id="path103" />
    <path
       d="m 200.78712,392.11631 h 3.432 v 16.324 h -3.432 z"
       style="font-weight:700;font-size:22px;font-family:Montserrat, Arial, sans-serif;text-anchor:start;fill:#ffffff"
       id="path105" />
    <path
       d="m 212.17831,396.42831 q 2.75,0 4.224,1.32 1.474,1.298 1.474,3.938 v 6.754 h -3.212 v -1.474 q -0.968,1.65 -3.608,1.65 -1.364,0 -2.376,-0.462 -0.99,-0.462 -1.518,-1.276 -0.528,-0.814 -0.528,-1.848 0,-1.65 1.232,-2.596 1.254,-0.946 3.85,-0.946 h 2.728 q 0,-1.122 -0.682,-1.716 -0.682,-0.616 -2.046,-0.616 -0.946,0 -1.87,0.308 -0.902,0.286 -1.54,0.792 l -1.232,-2.398 q 0.968,-0.682 2.31,-1.056 1.364,-0.374 2.794,-0.374 z m -0.264,9.878 q 0.88,0 1.562,-0.396 0.682,-0.418 0.968,-1.21 v -1.21 h -2.354 q -2.112,0 -2.112,1.386 0,0.66 0.506,1.056 0.528,0.374 1.43,0.374 z"
       style="font-weight:700;font-size:22px;font-family:Montserrat, Arial, sans-serif;text-anchor:start;fill:#ffffff"
       id="path107" />
    <path
       d="m 228.17644,396.42831 q 2.2,0 3.542,1.32 1.364,1.32 1.364,3.916 v 6.776 h -3.432 v -6.248 q 0,-1.408 -0.616,-2.09 -0.616,-0.704 -1.782,-0.704 -1.298,0 -2.068,0.814 -0.77,0.792 -0.77,2.376 v 5.852 h -3.432 v -11.836 h 3.278 v 1.386 q 0.682,-0.748 1.694,-1.144 1.012,-0.418 2.222,-0.418 z"
       style="font-weight:700;font-size:22px;font-family:Montserrat, Arial, sans-serif;text-anchor:start;fill:#ffffff"
       id="path109" />
    <path
       d="m 243.82737,407.86831 q -0.506,0.374 -1.254,0.572 -0.726,0.176 -1.54,0.176 -2.112,0 -3.278,-1.078 -1.144,-1.078 -1.144,-3.168 v -4.862 h -1.826 v -2.64 h 1.826 v -2.882 h 3.432 v 2.882 h 2.948 v 2.64 h -2.948 v 4.818 q 0,0.748 0.374,1.166 0.396,0.396 1.1,0.396 0.814,0 1.386,-0.44 z"
       style="font-weight:700;font-size:22px;font-family:Montserrat, Arial, sans-serif;text-anchor:start;fill:#ffffff"
       id="path111" />
    <path
       d="m 256.98269,402.56631 q 0,0.066 -0.066,0.924 h -8.954 q 0.242,1.1 1.144,1.738 0.902,0.638 2.244,0.638 0.924,0 1.628,-0.264 0.726,-0.286 1.342,-0.88 l 1.826,1.98 q -1.672,1.914 -4.884,1.914 -2.002,0 -3.542,-0.77 -1.54,-0.792 -2.376,-2.178 -0.836,-1.386 -0.836,-3.146 0,-1.738 0.814,-3.124 0.836,-1.408 2.266,-2.178 1.452,-0.792 3.234,-0.792 1.738,0 3.146,0.748 1.408,0.748 2.2,2.156 0.814,1.386 0.814,3.234 z m -6.138,-3.542 q -1.166,0 -1.958,0.66 -0.792,0.66 -0.968,1.804 h 5.83 q -0.176,-1.122 -0.968,-1.782 -0.792,-0.682 -1.936,-0.682 z"
       style="font-weight:700;font-size:22px;font-family:Montserrat, Arial, sans-serif;text-anchor:start;fill:#ffffff"
       id="path113" />
    <path
       d="m 263.69784,396.42831 q 2.75,0 4.224,1.32 1.474,1.298 1.474,3.938 v 6.754 h -3.212 v -1.474 q -0.968,1.65 -3.608,1.65 -1.364,0 -2.376,-0.462 -0.99,-0.462 -1.518,-1.276 -0.528,-0.814 -0.528,-1.848 0,-1.65 1.232,-2.596 1.254,-0.946 3.85,-0.946 h 2.728 q 0,-1.122 -0.682,-1.716 -0.682,-0.616 -2.046,-0.616 -0.946,0 -1.87,0.308 -0.902,0.286 -1.54,0.792 l -1.232,-2.398 q 0.968,-0.682 2.31,-1.056 1.364,-0.374 2.794,-0.374 z m -0.264,9.878 q 0.88,0 1.562,-0.396 0.682,-0.418 0.968,-1.21 v -1.21 h -2.354 q -2.112,0 -2.112,1.386 0,0.66 0.506,1.056 0.528,0.374 1.43,0.374 z"
       style="font-weight:700;font-size:22px;font-family:Montserrat, Arial, sans-serif;text-anchor:start;fill:#ffffff"
       id="path115" />
    <path
       d="m 287.65997,396.42831 q 2.222,0 3.52,1.32 1.32,1.298 1.32,3.916 v 6.776 h -3.432 v -6.248 q 0,-1.408 -0.594,-2.09 -0.572,-0.704 -1.65,-0.704 -1.21,0 -1.914,0.792 -0.704,0.77 -0.704,2.31 v 5.94 h -3.432 v -6.248 q 0,-2.794 -2.244,-2.794 -1.188,0 -1.892,0.792 -0.704,0.77 -0.704,2.31 v 5.94 h -3.432 v -11.836 h 3.278 v 1.364 q 0.66,-0.748 1.606,-1.144 0.968,-0.396 2.112,-0.396 1.254,0 2.266,0.506 1.012,0.484 1.628,1.43 0.726,-0.924 1.826,-1.43 1.122,-0.506 2.442,-0.506 z"
       style="font-weight:700;font-size:22px;font-family:Montserrat, Arial, sans-serif;text-anchor:start;fill:#ffffff"
       id="path117" />
    <path
       d="m 295.57619,396.60431 h 3.432 v 11.836 h -3.432 z m 1.716,-1.65 q -0.946,0 -1.54,-0.55 -0.594,-0.55 -0.594,-1.364 0,-0.814 0.594,-1.364 0.594,-0.55 1.54,-0.55 0.946,0 1.54,0.528 0.594,0.528 0.594,1.32 0,0.858 -0.594,1.43 -0.594,0.55 -1.54,0.55 z"
       style="font-weight:700;font-size:22px;font-family:Montserrat, Arial, sans-serif;text-anchor:start;fill:#ffffff"
       id="path119" />
    <path
       d="m 313.78737,402.56631 q 0,0.066 -0.066,0.924 h -8.954 q 0.24199,1.1 1.144,1.738 0.90199,0.638 2.24399,0.638 0.92401,0 1.628,-0.264 0.726,-0.286 1.34201,-0.88 l 1.82599,1.98 q -1.67199,1.914 -4.88399,1.914 -2.002,0 -3.54201,-0.77 -1.54,-0.792 -2.37599,-2.178 -0.83601,-1.386 -0.83601,-3.146 0,-1.738 0.814,-3.124 0.836,-1.408 2.266,-2.178 1.452,-0.792 3.234,-0.792 1.738,0 3.146,0.748 1.408,0.748 2.2,2.156 0.814,1.386 0.814,3.234 z m -6.13799,-3.542 q -1.166,0 -1.95801,0.66 -0.79199,0.66 -0.968,1.804 h 5.83001 q -0.176,-1.122 -0.96801,-1.782 -0.79199,-0.682 -1.93599,-0.682 z"
       style="font-weight:700;font-size:22px;font-family:Montserrat, Arial, sans-serif;text-anchor:start;fill:#ffffff"
       id="path121" />
    <path
       d="m 323.26628,396.42831 q 2.2,0 3.542,1.32 1.364,1.32 1.364,3.916 v 6.776 h -3.432 v -6.248 q 0,-1.408 -0.616,-2.09 -0.616,-0.704 -1.782,-0.704 -1.298,0 -2.068,0.814 -0.77,0.792 -0.77,2.376 v 5.852 h -3.432 v -11.836 h 3.278 v 1.386 q 0.682,-0.748 1.694,-1.144 1.012,-0.418 2.222,-0.418 z"
       style="font-weight:700;font-size:22px;font-family:Montserrat, Arial, sans-serif;text-anchor:start;fill:#ffffff"
       id="path123" />
    <path
       d="m 338.91722,407.86831 q -0.506,0.374 -1.254,0.572 -0.726,0.176 -1.54,0.176 -2.112,0 -3.278,-1.078 -1.144,-1.078 -1.144,-3.168 v -4.862 h -1.826 v -2.64 h 1.826 v -2.882 h 3.432 v 2.882 h 2.948 v 2.64 h -2.948 v 4.818 q 0,0.748 0.374,1.166 0.396,0.396 1.1,0.396 0.814,0 1.386,-0.44 z"
       style="font-weight:700;font-size:22px;font-family:Montserrat, Arial, sans-serif;text-anchor:start;fill:#ffffff"
       id="path125" />
    <path
       d="m 346.11053,408.61631 q -1.87,0 -3.366,-0.77 -1.474,-0.792 -2.31,-2.178 -0.836,-1.386 -0.836,-3.146 0,-1.76 0.836,-3.146 0.836,-1.386 2.31,-2.156 1.496,-0.792 3.366,-0.792 1.87,0 3.344,0.792 1.474,0.77 2.31,2.156 0.836,1.386 0.836,3.146 0,1.76 -0.836,3.146 -0.836,1.386 -2.31,2.178 -1.474,0.77 -3.344,0.77 z m 0,-2.816 q 1.32,0 2.156,-0.88 0.858,-0.902 0.858,-2.398 0,-1.496 -0.858,-2.376 -0.836,-0.902 -2.156,-0.902 -1.32,0 -2.178,0.902 -0.858,0.88 -0.858,2.376 0,1.496 0.858,2.398 0.858,0.88 2.178,0.88 z"
       style="font-weight:700;font-size:22px;font-family:Montserrat, Arial, sans-serif;text-anchor:start;fill:#ffffff"
       id="path127" />
  </g>
  <path
     class="cls-8"
     d="M421.94,80l-7.15,7.06V118.6h-31.9L251,249,381.37,380.86v31.91h31.54l10,10.08.35.36.35-.35h0l.65-.64h0c46.41-45.51,72-107,72-173.23,0-65.71-24.86-126.46-71-172.23h0l-2,2Z"
     id="path20" />
  <g
     aria-label="Implementación"
     style="font-weight:700;font-size:22px;font-family:Montserrat, Arial, sans-serif;fill:#ffffff"
     id="text22">
    <path
       d="m 294.56849,245.29485 h 3.564 v 15.4 h -3.564 z"
       style="font-weight:700;font-size:22px;font-family:Montserrat, Arial, sans-serif;fill:#ffffff"
       id="path70" />
    <path
       d="m 316.70324,248.68285 q 2.222,0 3.52,1.32 1.32,1.298 1.32,3.916 v 6.776 h -3.432 v -6.248 q 0,-1.408 -0.594,-2.09 -0.572,-0.704 -1.65,-0.704 -1.21,0 -1.914,0.792 -0.704,0.77 -0.704,2.31 v 5.94 h -3.432 v -6.248 q 0,-2.794 -2.244,-2.794 -1.188,0 -1.892,0.792 -0.704,0.77 -0.704,2.31 v 5.94 h -3.432 v -11.836 h 3.278 v 1.364 q 0.66,-0.748 1.606,-1.144 0.968,-0.396 2.112,-0.396 1.254,0 2.266,0.506 1.012,0.484 1.628,1.43 0.726,-0.924 1.826,-1.43 1.122,-0.506 2.442,-0.506 z"
       style="font-weight:700;font-size:22px;font-family:Montserrat, Arial, sans-serif;fill:#ffffff"
       id="path72" />
    <path
       d="m 331.61546,248.68285 q 1.65,0 2.992,0.77 1.364,0.748 2.134,2.134 0.77,1.364 0.77,3.19 0,1.826 -0.77,3.212 -0.77,1.364 -2.134,2.134 -1.342,0.748 -2.992,0.748 -2.266,0 -3.564,-1.43 v 5.522 h -3.432 v -16.104 h 3.278 v 1.364 q 1.276,-1.54 3.718,-1.54 z m -0.594,9.372 q 1.32,0 2.156,-0.88 0.858,-0.902 0.858,-2.398 0,-1.496 -0.858,-2.376 -0.836,-0.902 -2.156,-0.902 -1.32,0 -2.178,0.902 -0.836,0.88 -0.836,2.376 0,1.496 0.836,2.398 0.858,0.88 2.178,0.88 z"
       style="font-weight:700;font-size:22px;font-family:Montserrat, Arial, sans-serif;fill:#ffffff"
       id="path74" />
    <path
       d="m 339.78743,244.37085 h 3.432 v 16.324 h -3.432 z"
       style="font-weight:700;font-size:22px;font-family:Montserrat, Arial, sans-serif;fill:#ffffff"
       id="path76" />
    <path
       d="m 357.99862,254.82085 q 0,0.066 -0.066,0.924 h -8.954 q 0.242,1.1 1.144,1.738 0.902,0.638 2.244,0.638 0.924,0 1.628,-0.264 0.726,-0.286 1.342,-0.88 l 1.826,1.98 q -1.672,1.914 -4.884,1.914 -2.002,0 -3.542,-0.77 -1.54,-0.792 -2.376,-2.178 -0.836,-1.386 -0.836,-3.146 0,-1.738 0.814,-3.124 0.836,-1.408 2.266,-2.178 1.452,-0.792 3.234,-0.792 1.738,0 3.146,0.748 1.408,0.748 2.2,2.156 0.814,1.386 0.814,3.234 z m -6.138,-3.542 q -1.166,0 -1.958,0.66 -0.792,0.66 -0.968,1.804 h 5.83 q -0.176,-1.122 -0.968,-1.782 -0.792,-0.682 -1.936,-0.682 z"
       style="font-weight:700;font-size:22px;font-family:Montserrat, Arial, sans-serif;fill:#ffffff"
       id="path78" />
    <path
       d="m 375.44152,248.68285 q 2.222,0 3.52,1.32 1.32,1.298 1.32,3.916 v 6.776 h -3.432 v -6.248 q 0,-1.408 -0.594,-2.09 -0.572,-0.704 -1.65,-0.704 -1.21,0 -1.914,0.792 -0.704,0.77 -0.704,2.31 v 5.94 h -3.432 v -6.248 q 0,-2.794 -2.244,-2.794 -1.188,0 -1.892,0.792 -0.704,0.77 -0.704,2.31 v 5.94 h -3.432 v -11.836 h 3.278 v 1.364 q 0.66,-0.748 1.606,-1.144 0.968,-0.396 2.112,-0.396 1.254,0 2.266,0.506 1.012,0.484 1.628,1.43 0.726,-0.924 1.826,-1.43 1.122,-0.506 2.442,-0.506 z"
       style="font-weight:700;font-size:22px;font-family:Montserrat, Arial, sans-serif;fill:#ffffff"
       id="path80" />
    <path
       d="m 395.08065,254.82085 q 0,0.066 -0.066,0.924 h -8.954 q 0.242,1.1 1.144,1.738 0.902,0.638 2.244,0.638 0.924,0 1.628,-0.264 0.726,-0.286 1.342,-0.88 l 1.826,1.98 q -1.672,1.914 -4.884,1.914 -2.002,0 -3.542,-0.77 -1.54,-0.792 -2.376,-2.178 -0.836,-1.386 -0.836,-3.146 0,-1.738 0.814,-3.124 0.836,-1.408 2.266,-2.178 1.452,-0.792 3.234,-0.792 1.738,0 3.146,0.748 1.408,0.748 2.2,2.156 0.814,1.386 0.814,3.234 z m -6.138,-3.542 q -1.166,0 -1.958,0.66 -0.792,0.66 -0.968,1.804 h 5.83 q -0.176,-1.122 -0.968,-1.782 -0.792,-0.682 -1.936,-0.682 z"
       style="font-weight:700;font-size:22px;font-family:Montserrat, Arial, sans-serif;fill:#ffffff"
       id="path82" />
    <path
       d="m 404.55956,248.68285 q 2.2,0 3.542,1.32 1.364,1.32 1.364,3.916 v 6.776 h -3.432 v -6.248 q 0,-1.408 -0.616,-2.09 -0.616,-0.704 -1.782,-0.704 -1.298,0 -2.068,0.814 -0.77,0.792 -0.77,2.376 v 5.852 h -3.432 v -11.836 h 3.278 v 1.386 q 0.682,-0.748 1.694,-1.144 1.012,-0.418 2.222,-0.418 z"
       style="font-weight:700;font-size:22px;font-family:Montserrat, Arial, sans-serif;fill:#ffffff"
       id="path84" />
    <path
       d="m 420.21049,260.12285 q -0.506,0.374 -1.254,0.572 -0.726,0.176 -1.54,0.176 -2.112,0 -3.278,-1.078 -1.144,-1.078 -1.144,-3.168 v -4.862 h -1.826 v -2.64 h 1.826 v -2.882 h 3.432 v 2.882 h 2.948 v 2.64 h -2.948 v 4.818 q 0,0.748 0.374,1.166 0.396,0.396 1.1,0.396 0.814,0 1.386,-0.44 z"
       style="font-weight:700;font-size:22px;font-family:Montserrat, Arial, sans-serif;fill:#ffffff"
       id="path86" />
    <path
       d="m 426.93252,248.68285 q 2.75,0 4.224,1.32 1.474,1.298 1.474,3.938 v 6.754 h -3.212 v -1.474 q -0.968,1.65 -3.608,1.65 -1.364,0 -2.376,-0.462 -0.99,-0.462 -1.518,-1.276 -0.528,-0.814 -0.528,-1.848 0,-1.65 1.232,-2.596 1.254,-0.946 3.85,-0.946 h 2.728 q 0,-1.122 -0.682,-1.716 -0.682,-0.616 -2.046,-0.616 -0.946,0 -1.87,0.308 -0.902,0.286 -1.54,0.792 l -1.232,-2.398 q 0.968,-0.682 2.31,-1.056 1.364,-0.374 2.794,-0.374 z m -0.264,9.878 q 0.88,0 1.562,-0.396 0.682,-0.418 0.968,-1.21 v -1.21 h -2.354 q -2.112,0 -2.112,1.386 0,0.66 0.506,1.056 0.528,0.374 1.43,0.374 z"
       style="font-weight:700;font-size:22px;font-family:Montserrat, Arial, sans-serif;fill:#ffffff"
       id="path88" />
    <path
       d="m 441.58556,260.87085 q -1.892,0 -3.41,-0.77 -1.496,-0.792 -2.354,-2.178 -0.836,-1.386 -0.836,-3.146 0,-1.76 0.836,-3.146 0.858,-1.386 2.354,-2.156 1.518,-0.792 3.41,-0.792 1.87,0 3.256,0.792 1.408,0.77 2.046,2.222 l -2.662,1.43 q -0.924,-1.628 -2.662,-1.628 -1.342,0 -2.222,0.88 -0.88,0.88 -0.88,2.398 0,1.518 0.88,2.398 0.88,0.88 2.222,0.88 1.76,0 2.662,-1.628 l 2.662,1.452 q -0.638,1.408 -2.046,2.2 -1.386,0.792 -3.256,0.792 z"
       style="font-weight:700;font-size:22px;font-family:Montserrat, Arial, sans-serif;fill:#ffffff"
       id="path90" />
    <path
       d="m 448.88509,248.85885 h 3.432 v 11.836 h -3.432 z m 1.716,-1.65 q -0.946,0 -1.54,-0.55 -0.594,-0.55 -0.594,-1.364 0,-0.814 0.594,-1.364 0.594,-0.55 1.54,-0.55 0.946,0 1.54,0.528 0.594,0.528 0.594,1.32 0,0.858 -0.594,1.43 -0.594,0.55 -1.54,0.55 z"
       style="font-weight:700;font-size:22px;font-family:Montserrat, Arial, sans-serif;fill:#ffffff"
       id="path92" />
    <path
       d="m 461.13427,260.87085 q -1.87,0 -3.366,-0.77 -1.474,-0.792 -2.31,-2.178 -0.836,-1.386 -0.836,-3.146 0,-1.76 0.836,-3.146 0.836,-1.386 2.31,-2.156 1.496,-0.792 3.366,-0.792 1.87,0 3.344,0.792 1.474,0.77 2.31,2.156 0.836,1.386 0.836,3.146 0,1.76 -0.836,3.146 -0.836,1.386 -2.31,2.178 -1.474,0.77 -3.344,0.77 z m 0,-2.816 q 1.32,0 2.156,-0.88 0.858,-0.902 0.858,-2.398 0,-1.496 -0.858,-2.376 -0.836,-0.902 -2.156,-0.902 -1.32,0 -2.178,0.902 -0.858,0.88 -0.858,2.376 0,1.496 0.858,2.398 0.858,0.88 2.178,0.88 z m 0.924,-13.882 h 3.696 l -3.982,3.168 h -2.684 z"
       style="font-weight:700;font-size:22px;font-family:Montserrat, Arial, sans-serif;fill:#ffffff"
       id="path94" />
    <path
       d="m 477.09081,248.68285 q 2.2,0 3.542,1.32 1.364,1.32 1.364,3.916 v 6.776 h -3.432 v -6.248 q 0,-1.408 -0.616,-2.09 -0.616,-0.704 -1.782,-0.704 -1.298,0 -2.068,0.814 -0.77,0.792 -0.77,2.376 v 5.852 h -3.432 v -11.836 h 3.278 v 1.386 q 0.682,-0.748 1.694,-1.144 1.012,-0.418 2.222,-0.418 z"
       style="font-weight:700;font-size:22px;font-family:Montserrat, Arial, sans-serif;fill:#ffffff"
       id="path96" />
  </g>
</svg>
