<?xml version="1.0" encoding="UTF-8" standalone="no"?>
<svg
   xmlns:dc="http://purl.org/dc/elements/1.1/"
   xmlns:cc="http://creativecommons.org/ns#"
   xmlns:rdf="http://www.w3.org/1999/02/22-rdf-syntax-ns#"
   xmlns:svg="http://www.w3.org/2000/svg"
   xmlns="http://www.w3.org/2000/svg"
   xmlns:sodipodi="http://sodipodi.sourceforge.net/DTD/sodipodi-0.dtd"
   xmlns:inkscape="http://www.inkscape.org/namespaces/inkscape"
   data-name="Capa 1"
   viewBox="0 0 500 500"
   id="svg"
   version="1.1"
   sodipodi:docname="circle.svg"
   inkscape:version="0.92.3 (2405546, 2018-03-11)">
  <metadata
     id="metadata27">
    <rdf:RDF>
      <cc:Work
         rdf:about="">
        <dc:format>image/svg+xml</dc:format>
        <dc:type
           rdf:resource="http://purl.org/dc/dcmitype/StillImage" />
      </cc:Work>
    </rdf:RDF>
  </metadata>
  <sodipodi:namedview
     pagecolor="#ffffff"
     bordercolor="#666666"
     borderopacity="1"
     objecttolerance="10"
     gridtolerance="10"
     guidetolerance="10"
     inkscape:pageopacity="0"
     inkscape:pageshadow="2"
     inkscape:window-width="1853"
     inkscape:window-height="1025"
     id="namedview25"
     showgrid="false"
     inkscape:zoom="1.888"
     inkscape:cx="272.23949"
     inkscape:cy="253.71584"
     inkscape:window-x="67"
     inkscape:window-y="27"
     inkscape:window-maximized="1"
     inkscape:current-layer="svg" />
  <defs
     id="defs4">
    <style
       id="style2">
			.cls-1{fill:#bf00b9;}
			.cls-2{
        font-size: 22px;
        fill: #ffffff;
        font-family: "Montserrat", Arial, sans-serif;
        font-weight:700;
        }
			.cls-3{letter-spacing:-0.01em;}
			.cls-4{letter-spacing:-0.02em;}
			.cls-5{fill:#ffd000;}
			.cls-6{fill:red;}
			.cls-7{letter-spacing:-0.01em;}
			.cls-8{fill:#0074c3;}


            #svg {
              display: inline-block;
              vertical-align: middle;
              fill: #ffd000;
            }
            
            #svg .cls-1 {
              animation: violet 4s linear infinite;
              animation-delay: 0s;
            }

            #svg .cls-5 {
              animation: yellow 4s linear infinite;
              animation-delay: 1s;
            }

            #svg .cls-8 {  
              animation: blue 4s linear infinite  ;
              animation-delay: 2s  ;
            }
    
            #svg .cls-6   {  
              animation: red 4s linear infinite  ;
              animation-delay: 3s  ;
            }
            
            @keyframes violet {
              0% {
               fill: #bf00b9;
              }
              10% {
                fill: #f463f0;
              }
              20% {
                fill:  #bf00b9;
              }
              100% {
                fill: #bf00b9; 
              }
            }

            @keyframes yellow {
              0% {
                fill: #ffd000;
              }
              10% {
                fill: #ffec99;
              }
              20% {
                fill: #ffd000;
              }
              100% {
               fill: #ffd000;
              }
            }

            @keyframes blue {
 	        0% {
	          fill: #0074c3;
	        }
	10% {
	  fill: #89c5ee
	}
	20% {
	  fill: #0074c3;
	}
	100% {
	  fill: #0074c3;
	}
}

@keyframes red {
	0% {
	 fill: #ff0000;
	}
	10% {
	  fill: #ff7575;
	}
	20% {
	  fill: #ff0000;
	}
	100% {
	  fill: #ff0000;
	}
}


@keyframes pweek {
  0% {
    fill: #ffd000;
  }
  25% {
    fill: #0074c3;
  }
  50% {
    fill: #ff0000;
  }
  75% {
    fill: #bf00b9;
  }
  100% {
    fill: #ffd000;
  }
}



		</style>
  </defs>
  <title
     id="title6">circulo</title>
  <path
     class="cls-1"
     d="M251,249,120.34,119.81V84.08H84.19l-7-7-.34-.35-.36.34h0l-.66.64h0c-46.41,45.5-72,107-72,173.23,0,65.7,25.39,127,71.5,172.75h0l1.11,1.1,0,0h0l.35.35,7.34-7.42V381.64h35.73Z"
     id="path8" />
  <text
     class="cls-2"
     id="text10"
     x="38.46064"
     y="262.69363"
     >Evaluación</text>
  <path
     class="cls-5"
     d="M251,249,382.89,118.6h31.9V87.06l10.09-10,.35-.35-.34-.36h0l-.64-.66h0c-45.5-46.41-107-72-173.23-72-65.7,0-127,25.39-172.76,71.5h0l-1.09,1.11,0,0h0l-.35.35,7.42,7.34h36.15v35.73Z"
     id="path12" />
  <text
     class="cls-2"
     id="text14"
     x="37%"
     y="114.25867"
     >Planificación</text>
  <path
     class="cls-6"
     d="M412.92,412.77H381.38V380.86L251,249,118.12,381.38l-33.92.26v36.15l-7,7.1-.31.32h0c45.51,46.41,106.9,71,173.15,71,65.7,0,127.45-26.89,173.23-73l-1.6-1.62Z"
     id="path16" />
  <text
     class="cls-2"
     id="text18"
     x="32%"
     y="408.44031"
     text-anchor="start"     
     >Replanteamiento</text>
  <path
     class="cls-8"
     d="M421.94,80l-7.15,7.06V118.6h-31.9L251,249,381.37,380.86v31.91h31.54l10,10.08.35.36.35-.35h0l.65-.64h0c46.41-45.51,72-107,72-173.23,0-65.71-24.86-126.46-71-172.23h0l-2,2Z"
     id="path20" />
  <text
     class="cls-2"
     id="text22"
     x="298.74249"
     y="260.69485"
     >Implementación</text>
</svg>
