<svg id="Capa_1" data-name="Capa 1" xmlns="http://www.w3.org/2000/svg" viewBox="0 0 73.15 71.49"><title>Compartir_LOGOS</title><path d="M49.43,39.85V35.71c-1.45,0-2.87-.07-4.28,0-1.8.11-2.49-.71-2.42-2.44.06-1.37,0-2.74,0-4.11,0-2.27.46-2.68,2.81-2.72l3.33,0a3.79,3.79,0,0,0,.5-.14V22.57a37.67,37.67,0,0,0-6.46.08c-2.68.45-4.28,2.81-4.38,5.74-.07,1.77,0,3.53,0,5.29,0,1.4-.6,2-2,2s-3,0-4.6,0v4.14h4.35c1.51,0,2.28.55,2.26,2.2-.06,5.55,0,11.1,0,16.65,0,1.49-.59,2.13-2.09,2.12-6.34,0-12.67,0-19,0a5.9,5.9,0,0,1-5.92-6q-.06-19,0-38a5.93,5.93,0,0,1,6.06-6.08q19-.06,38,0a5.92,5.92,0,0,1,6.05,6.08q0,19,0,38a5.94,5.94,0,0,1-5.93,6c-3.59.06-7.18,0-10.77,0-1.64,0-2.2-.71-2.19-2.24,0-5.48,0-11,0-16.45,0-1.71.76-2.35,2.38-2.3C46.47,39.88,47.84,39.85,49.43,39.85Zm-13.94-7.2c0-1.51,0-2.8,0-4.08.21-5.1,3.43-8.79,8.16-9.18,2.33-.19,4.69-.07,7-.07,1.31,0,1.88.77,1.88,2,0,2.09,0,4.18,0,6.27a1.7,1.7,0,0,1-1.95,1.9c-1.55,0-3.1,0-4.76,0v3.16h4.62a1.82,1.82,0,0,1,2.09,2c0,2.09,0,4.18,0,6.27a1.7,1.7,0,0,1-1.93,1.92H45.89V57.76c3.07,0,6,0,8.93,0,2.75,0,3.77-1,3.78-3.79q0-18.21,0-36.43c0-2.78-1-3.82-3.74-3.82q-18.31,0-36.63,0c-2.62,0-3.67,1.06-3.67,3.69q0,18.32,0,36.62c0,2.72,1,3.72,3.83,3.73,5.16,0,10.32,0,15.48,0,.49,0,1-.1,1.5-.15V42.86c-1.53,0-2.95,0-4.37,0s-2.31-.54-2.26-2.17c.06-2,.05-3.92,0-5.88,0-1.49.64-2.17,2.11-2.16Z"/></svg>