<svg id="Capa_1" data-name="Capa 1" xmlns="http://www.w3.org/2000/svg" viewBox="0 0 400 400"><defs><style>.cls-1{fill:#fff;}</style></defs><title>ICONO_profesor</title><g id="Professional_Training" data-name="Professional Training"><path class="cls-1" d="M362.8,234.91H236.48a2.35,2.35,0,1,1,0-4.7H362.8a3.57,3.57,0,0,0,3.57-3.57V66.8a2.35,2.35,0,1,1,4.7,0V226.64A8.28,8.28,0,0,1,362.8,234.91Z"/><path class="cls-1" d="M192.65,234.91h-43a8.28,8.28,0,0,1-8.27-8.27V140.8a2.35,2.35,0,0,1,4.7,0v85.84a3.57,3.57,0,0,0,3.57,3.57h43a2.35,2.35,0,1,1,0,4.7Z"/><path class="cls-1" d="M143.76,89.87a2.35,2.35,0,0,1-2.35-2.35V66.8a2.35,2.35,0,0,1,4.7,0V87.52A2.35,2.35,0,0,1,143.76,89.87Z"/><path class="cls-1" d="M143.76,125.39a2.35,2.35,0,0,1-2.35-2.35V105.28a2.35,2.35,0,0,1,4.7,0V123A2.35,2.35,0,0,1,143.76,125.39Z"/><path class="cls-1" d="M381.77,57.31H130.71a7.07,7.07,0,0,1-7.06-7.06V41.91a7.07,7.07,0,0,1,7.06-7.06H381.77a7.07,7.07,0,0,1,7.06,7.06v8.34A7.07,7.07,0,0,1,381.77,57.31ZM130.71,39.56a2.35,2.35,0,0,0-2.35,2.35v8.34a2.36,2.36,0,0,0,2.35,2.36H381.77a2.36,2.36,0,0,0,2.35-2.36V41.91a2.35,2.35,0,0,0-2.35-2.35Z"/><path class="cls-1" d="M84.56,229a49.71,49.71,0,1,1,49.72-49.71A49.77,49.77,0,0,1,84.56,229Zm0-94.72a45,45,0,1,0,45,45A45.06,45.06,0,0,0,84.56,134.27Z"/><path class="cls-1" d="M41.67,181.64H37.2a2.36,2.36,0,0,1-2.35-2.36,49.71,49.71,0,0,1,87.89-31.83,2.34,2.34,0,0,1,.53,1.72,2.31,2.31,0,0,1-.83,1.6l-3.53,2.94h0A121,121,0,0,1,41.67,181.64Zm-2.05-4.71h2.05a116.3,116.3,0,0,0,74.23-26.84l1.67-1.39a45,45,0,0,0-77.95,28.23Zm77.78-25h0Z"/><path class="cls-1" d="M84.59,261.37a2.39,2.39,0,0,1-2-1L64.85,233.91a2.41,2.41,0,0,1-.4-1.32v-9.45A2.35,2.35,0,0,1,67.69,221a45,45,0,0,0,33.75,0,2.39,2.39,0,0,1,2.2.23,2.35,2.35,0,0,1,1,2v9.34a2.33,2.33,0,0,1-.4,1.31L86.54,260.32a2.35,2.35,0,0,1-2,1.05Zm-15.43-29.5,15.42,22.92,15.39-23v-5.26a49.54,49.54,0,0,1-30.81,0Z"/><path class="cls-1" d="M126,365.15h0a2.35,2.35,0,0,1-2.35-2.35l0-82.44a2.35,2.35,0,0,1,4-1.67l27.5,27.51a12.46,12.46,0,0,0,17.6,0L213,266l-17.6-17.6-29.73,29.73a2.35,2.35,0,0,1-3.33,0l-21.68-21.67a56.63,56.63,0,0,0-16.75-11.6l-20.71-9.37L86.54,260.32a2.35,2.35,0,0,1-2,1.05h0a2.39,2.39,0,0,1-2-1L66,235.54,32.06,250.6a27.29,27.29,0,0,0-16.18,24.9v87.3a2.36,2.36,0,0,1-4.71,0V275.5a32,32,0,0,1,19-29.2l35.7-15.86a2.35,2.35,0,0,1,2.91.84l15.82,23.51,15.79-23.57a2.36,2.36,0,0,1,2.92-.83l22.53,10.2A61.21,61.21,0,0,1,144,253.14l20,20,29.73-29.73a2.35,2.35,0,0,1,3.33,0L218,264.35a2.35,2.35,0,0,1,0,3.33l-41.84,41.84a17.17,17.17,0,0,1-24.26,0L128.38,286l0,76.76A2.36,2.36,0,0,1,126,365.15Z"/><path class="cls-1" d="M43.12,365.15a2.35,2.35,0,0,1-2.35-2.35v-71a2.36,2.36,0,1,1,4.71,0v71A2.36,2.36,0,0,1,43.12,365.15Z"/><path class="cls-1" d="M84.62,347.39a2.35,2.35,0,0,1-1.66-.68L68.1,331.91a2.38,2.38,0,0,1-.67-2l8.88-71.23a2.35,2.35,0,0,1,2.33-2.06H90.48a2.35,2.35,0,0,1,2.34,2.06L101.7,330a2.35,2.35,0,0,1-.67,1.95L86.29,346.7A2.41,2.41,0,0,1,84.62,347.39Zm-12.38-18,12.37,12.32,12.27-12.32-8.48-68H80.72Z"/><path class="cls-1" d="M84.58,261.37H63.84a2.37,2.37,0,0,1-2.34-2.62l3-26.42a2.36,2.36,0,0,1,4.3-1.05l15.82,23.51,15.78-23.56a2.36,2.36,0,0,1,4.3,1l3,26.48a2.35,2.35,0,0,1-.58,1.83,2.37,2.37,0,0,1-1.76.79H84.58ZM89,256.66h13.66l-2-17.47Zm-22.52,0H80.16L68.43,239.22Z"/><path class="cls-1" d="M224.64,260.16a2.41,2.41,0,0,1-1.86-3.93,12.58,12.58,0,0,0,.22-17.86,12.37,12.37,0,0,0-8.8-3.64h0a12.35,12.35,0,0,0-8.69,3.53,2.25,2.25,0,0,1-.72.56h0a2.36,2.36,0,0,1-2.72-3.77,17,17,0,0,1,12.14-5h0a17.16,17.16,0,0,1,12.15,29.26A2.11,2.11,0,0,1,224.64,260.16Z"/><path class="cls-1" d="M346.25,365.15H261a7.07,7.07,0,0,1-7.06-7.06V296.46A7.07,7.07,0,0,1,261,289.4h85.3a7.07,7.07,0,0,1,7.06,7.06v61.63A7.07,7.07,0,0,1,346.25,365.15Zm-85.3-71a2.36,2.36,0,0,0-2.36,2.35v61.63a2.36,2.36,0,0,0,2.36,2.35h85.3a2.36,2.36,0,0,0,2.36-2.35V296.46a2.36,2.36,0,0,0-2.36-2.35Z"/><path class="cls-1" d="M256.24,365.15H201.75a7.07,7.07,0,0,1-7.06-7.06v-2.43a7.07,7.07,0,0,1,7.06-7.06h54.49a2.36,2.36,0,0,1,2.35,2.36V362.8A2.35,2.35,0,0,1,256.24,365.15Zm-54.49-11.84a2.36,2.36,0,0,0-2.36,2.35v2.43a2.36,2.36,0,0,0,2.36,2.35h52.14v-7.13Z"/><path class="cls-1" d="M380.56,365.15H167.44a2.36,2.36,0,0,1,0-4.71H380.56a2.36,2.36,0,0,1,0,4.71Z"/><path class="cls-1" d="M303.6,338.51a11.24,11.24,0,1,1,11.23-11.23A11.24,11.24,0,0,1,303.6,338.51Zm0-17.76a6.53,6.53,0,1,0,6.53,6.53A6.54,6.54,0,0,0,303.6,320.75Z"/><path class="cls-1" d="M217.76,181.63a37.87,37.87,0,1,1,37.87-37.87A37.91,37.91,0,0,1,217.76,181.63Zm0-71a33.17,33.17,0,1,0,33.17,33.17A33.21,33.21,0,0,0,217.76,110.59Z"/><path class="cls-1" d="M217.76,181.63a37.87,37.87,0,0,1,0-75.74,2.35,2.35,0,0,1,2.35,2.35v34.55l24.43,24.42a2.35,2.35,0,0,1,0,3.33A37.62,37.62,0,0,1,217.76,181.63Zm-2.35-70.95a33.17,33.17,0,1,0,24.08,58.14l-23.4-23.4a2.35,2.35,0,0,1-.68-1.66Z"/><path class="cls-1" d="M253.28,146.11H217.76a2.35,2.35,0,0,1-2.35-2.35V108.24a2.35,2.35,0,0,1,2.35-2.35,37.91,37.91,0,0,1,37.87,37.87A2.35,2.35,0,0,1,253.28,146.11Zm-33.17-4.7h30.74a33.22,33.22,0,0,0-30.74-30.73Z"/><path class="cls-1" d="M330.24,140.2H282.88a2.36,2.36,0,0,1,0-4.71h47.36a2.36,2.36,0,0,1,0,4.71Z"/><path class="cls-1" d="M303.6,116.52H282.88a2.36,2.36,0,0,1,0-4.71H303.6a2.36,2.36,0,0,1,0,4.71Z"/><path class="cls-1" d="M330.24,158H282.88a2.35,2.35,0,0,1,0-4.7h47.36a2.35,2.35,0,0,1,0,4.7Z"/><path class="cls-1" d="M330.24,175.72H282.88a2.36,2.36,0,0,1,0-4.71h47.36a2.36,2.36,0,0,1,0,4.71Z"/></g></svg>