<svg id="Capa_1" data-name="Capa 1" xmlns="http://www.w3.org/2000/svg" viewBox="0 0 400 400"><defs><style>.cls-1{fill:#fff;}</style></defs><title>ICONO_escuela</title><path class="cls-1" d="M128.45,195.2a45.33,45.33,0,0,1-45.28-45.28V114.15a2.37,2.37,0,0,1,2.35-2.36c.78,0,19.11-.31,19.11-19.11a2.36,2.36,0,0,1,4.71,0c0,.14,1.59,19.11,62,19.11a2.36,2.36,0,0,1,2.36,2.36v35.77A45.34,45.34,0,0,1,128.45,195.2ZM87.88,116.31v33.61a40.58,40.58,0,0,0,81.15,0V116.49c-39.63-.34-54.87-9.11-60.74-15.91C104.72,112.86,93,115.67,87.88,116.31Z"/><path class="cls-1" d="M71.22,119.86a2.36,2.36,0,0,1-2.36-2.36V95.29a2.36,2.36,0,0,1,4.71,0V117.5A2.36,2.36,0,0,1,71.22,119.86Z"/><path class="cls-1" d="M73.24,79.88a2.27,2.27,0,0,1-.62-.09A2.35,2.35,0,0,1,71,76.9c1.71-6.25,3.17-10.17,6.81-15.56A2.35,2.35,0,1,1,81.67,64c-3.28,4.88-4.55,8.31-6.15,14.17A2.37,2.37,0,0,1,73.24,79.88Z"/><path class="cls-1" d="M185.69,122a2.35,2.35,0,0,1-2.35-2.35V92.68A55,55,0,0,0,128.45,37.8c-13.67,0-24.32,3.53-33.5,11.12a2.35,2.35,0,1,1-3-3.63c10.08-8.32,21.68-12.2,36.5-12.2A59.65,59.65,0,0,1,188,92.68v26.94A2.35,2.35,0,0,1,185.69,122Z"/><path class="cls-1" d="M171.38,159.43a2.36,2.36,0,0,1,0-4.71,19.11,19.11,0,1,0,0-38.22,2.36,2.36,0,0,1,0-4.71,23.82,23.82,0,0,1,0,47.64Z"/><path class="cls-1" d="M85.53,159.43a23.82,23.82,0,0,1,0-47.64,2.36,2.36,0,0,1,0,4.71,19.11,19.11,0,1,0,0,38.22,2.36,2.36,0,0,1,0,4.71Z"/><path class="cls-1" d="M278.7,238.13a45.33,45.33,0,0,1-45.28-45.28V157.07a2.36,2.36,0,0,1,2.35-2.35c.78,0,19.11-.31,19.11-19.11a2.36,2.36,0,0,1,4.71,0c0,.14,1.59,19.11,62,19.11a2.35,2.35,0,0,1,2.35,2.35v35.78A45.33,45.33,0,0,1,278.7,238.13Zm-40.57-78.89v33.61a40.58,40.58,0,0,0,81.15,0V159.42c-39.63-.34-54.87-9.11-60.74-15.92C255,155.79,243.2,158.6,238.13,159.24Z"/><path class="cls-1" d="M214.31,223.82a2.35,2.35,0,0,1-2.35-2.35V140.6a2.35,2.35,0,1,1,4.7,0v80.87A2.35,2.35,0,0,1,214.31,223.82Z"/><path class="cls-1" d="M215.44,127.25a2,2,0,0,1-.49,0,2.35,2.35,0,0,1-1.82-2.79,54.65,54.65,0,0,1,5.66-15.09,2.35,2.35,0,1,1,4.11,2.27,50.36,50.36,0,0,0-5.16,13.8A2.36,2.36,0,0,1,215.44,127.25Z"/><path class="cls-1" d="M343.1,276.74a2.36,2.36,0,0,1-2.36-2.35V135.61c0-30.27-27.83-54.89-62-54.89-20.91,0-31.59,4.16-45.71,17.8a2.35,2.35,0,0,1-3.27-3.38c15-14.48,26.89-19.12,49-19.12,36.81,0,66.75,26.73,66.75,59.59V274.39A2.35,2.35,0,0,1,343.1,276.74Z"/><path class="cls-1" d="M206.08,366.91H50.83a17.76,17.76,0,0,1-17.74-17.74V253.35a17.65,17.65,0,0,1,11.15-16.47l60.39-24.16V189.5a2.36,2.36,0,1,1,4.71,0v24.81a2.33,2.33,0,0,1-1.48,2.18L46,241.25a13,13,0,0,0-8.19,12.1v95.82a13,13,0,0,0,13,13H206.08a13,13,0,0,0,13-13V253.35a13,13,0,0,0-8.19-12.1L149,216.49a2.35,2.35,0,0,1-1.48-2.18V188.45a2.36,2.36,0,0,1,4.71,0v24.27l60.39,24.16a17.65,17.65,0,0,1,11.16,16.47v95.82A17.76,17.76,0,0,1,206.08,366.91Z"/><path class="cls-1" d="M348.28,366.91H242.93a2.36,2.36,0,1,1,0-4.71H348.28a13.93,13.93,0,0,0,13.92-13.92V296.44a13.93,13.93,0,0,0-8.27-12.73l-54.72-24.32a2.35,2.35,0,0,1-1.39-2.15V230a2.35,2.35,0,1,1,4.7,0v25.68l53.33,23.7a18.64,18.64,0,0,1,11.06,17v51.84A18.65,18.65,0,0,1,348.28,366.91Z"/><path class="cls-1" d="M242.93,266a2.35,2.35,0,0,1-1-4.5l12.91-5.74V230a2.36,2.36,0,0,1,4.71,0v27.21a2.36,2.36,0,0,1-1.4,2.15l-14.31,6.36A2.28,2.28,0,0,1,242.93,266Z"/><path class="cls-1" d="M128.45,238.13a2.36,2.36,0,0,1-1.66-.69L105.32,216a2.35,2.35,0,0,1,3.33-3.32l19.8,19.8,19.8-19.8a2.35,2.35,0,1,1,3.33,3.32l-21.46,21.47A2.36,2.36,0,0,1,128.45,238.13Z"/><path class="cls-1" d="M157.07,259.59a2.39,2.39,0,0,1-1.41-.47L127,237.66a2.36,2.36,0,1,1,2.83-3.77l27,20.24L184,227a2.35,2.35,0,0,1,3.32,3.33L158.74,258.9A2.35,2.35,0,0,1,157.07,259.59Z"/><path class="cls-1" d="M99.84,259.59a2.35,2.35,0,0,1-1.67-.69L69.55,230.28A2.35,2.35,0,0,1,72.88,227l27.18,27.18,27-20.24a2.36,2.36,0,0,1,2.83,3.77l-28.62,21.46A2.39,2.39,0,0,1,99.84,259.59Z"/><path class="cls-1" d="M185.69,366.91a2.35,2.35,0,0,1-2.35-2.35V307.32a2.35,2.35,0,0,1,4.7,0v57.24A2.35,2.35,0,0,1,185.69,366.91Z"/><path class="cls-1" d="M328.79,366.91a2.36,2.36,0,0,1-2.36-2.35V307.32a2.36,2.36,0,0,1,4.71,0v57.24A2.35,2.35,0,0,1,328.79,366.91Z"/><path class="cls-1" d="M71.22,366.91a2.36,2.36,0,0,1-2.36-2.35V307.32a2.36,2.36,0,0,1,4.71,0v57.24A2.35,2.35,0,0,1,71.22,366.91Z"/><path class="cls-1" d="M328.79,331.14H242.93a2.36,2.36,0,1,1,0-4.71h85.86a2.36,2.36,0,0,1,0,4.71Z"/><path class="cls-1" d="M128.45,366.91a2.35,2.35,0,0,1-2.35-2.35V235.78a2.36,2.36,0,1,1,4.71,0V364.56A2.35,2.35,0,0,1,128.45,366.91Z"/></svg>