<svg id="Capa_1" data-name="Capa 1" xmlns="http://www.w3.org/2000/svg" viewBox="0 0 400 400"><defs><style>.cls-1{fill:#fff;}</style></defs><title>ICONO_alumno</title><g id="Student_Male" data-name="Student Male"><circle class="cls-1" cx="219.81" cy="123.59" r="5.66"/><circle class="cls-1" cx="180.19" cy="123.59" r="5.66"/><path class="cls-1" d="M200,259a2.35,2.35,0,0,1-2.15-1.39l-22.64-50.94a2.31,2.31,0,0,1-.21-1V190a2.36,2.36,0,0,1,3.22-2.2,59.56,59.56,0,0,0,43.56,0,2.4,2.4,0,0,1,2.19.25,2.36,2.36,0,0,1,1,1.95v15.62a2.46,2.46,0,0,1-.2,1l-22.64,50.94A2.35,2.35,0,0,1,200,259Zm-20.29-53.79L200,250.8l20.29-45.64V193.39a64.16,64.16,0,0,1-40.58,0Z"/><path class="cls-1" d="M262.26,92H137.74a2.36,2.36,0,0,1-2.35-2.36V33a2.35,2.35,0,0,1,4.7,0V87.28H259.91V33a2.35,2.35,0,1,1,4.7,0v56.6A2.36,2.36,0,0,1,262.26,92Z"/><path class="cls-1" d="M287.73,35.39H112.27a8,8,0,0,1,0-16h19.81a2.35,2.35,0,0,1,0,4.7H112.27a3.31,3.31,0,0,0,0,6.62H287.73a3.31,3.31,0,1,0,0-6.62H183a2.35,2.35,0,0,1,0-4.7H287.73a8,8,0,0,1,0,16Z"/><path class="cls-1" d="M166,24.06h-17a2.35,2.35,0,1,1,0-4.7h17a2.35,2.35,0,0,1,0,4.7Z"/><path class="cls-1" d="M115.1,103.3a2.35,2.35,0,0,1-2.35-2.35V33a2.35,2.35,0,0,1,4.7,0V101A2.35,2.35,0,0,1,115.1,103.3Z"/><path class="cls-1" d="M200,196.69a64.25,64.25,0,0,1-62.43-48.11,16.5,16.5,0,0,1,.17-33,2.35,2.35,0,0,1,0,4.7,11.8,11.8,0,0,0,0,23.6,6.25,6.25,0,0,0,.87-.09l.5-.06a2.34,2.34,0,0,1,2.56,1.81,59.85,59.85,0,0,0,116.66,0,2.32,2.32,0,0,1,2.56-1.81l.5.06a6.25,6.25,0,0,0,.87.09,11.8,11.8,0,1,0,0-23.6,2.35,2.35,0,1,1,0-4.7,16.5,16.5,0,0,1,.17,33A64.25,64.25,0,0,1,200,196.69Z"/><path class="cls-1" d="M140.57,134.43h-2.83a2.35,2.35,0,0,1-2.35-2.35V101a2.35,2.35,0,1,1,4.7,0v28.78h.48a11.82,11.82,0,0,0,11.8-11.8V101a2.35,2.35,0,1,1,4.7,0v17A16.52,16.52,0,0,1,140.57,134.43Z"/><path class="cls-1" d="M262.26,134.43h-2.83a16.52,16.52,0,0,1-16.5-16.5V101a2.35,2.35,0,1,1,4.7,0v17a11.82,11.82,0,0,0,11.8,11.8h.48V101a2.35,2.35,0,1,1,4.7,0v31.13A2.35,2.35,0,0,1,262.26,134.43Z"/><path class="cls-1" d="M200,380.64a2.45,2.45,0,0,1-.75-.12l-67.91-22.63a2.36,2.36,0,0,1-1.61-2.24V248.11a2.34,2.34,0,0,1,3.09-2.23L200,268.27l67.18-22.39a2.34,2.34,0,0,1,3.09,2.23V355.65a2.36,2.36,0,0,1-1.61,2.24l-67.92,22.63A2.34,2.34,0,0,1,200,380.64ZM134.43,354,200,375.81,265.57,354V251.37L200.74,273a2.37,2.37,0,0,1-1.49,0l-64.82-21.61Zm133.49,1.69h0Z"/><path class="cls-1" d="M318.86,341a2.36,2.36,0,0,1-2.35-2.36v-69a40.17,40.17,0,0,0-26.76-37.81l-67.89-24a2.35,2.35,0,0,1,1.56-4.44l67.9,24a44.87,44.87,0,0,1,29.89,42.25v69A2.36,2.36,0,0,1,318.86,341Z"/><path class="cls-1" d="M81.14,341a2.36,2.36,0,0,1-2.35-2.36v-69a44.89,44.89,0,0,1,29.89-42.25l67.89-24a2.35,2.35,0,1,1,1.57,4.44l-67.89,24a40.18,40.18,0,0,0-26.76,37.81v69A2.36,2.36,0,0,1,81.14,341Z"/><path class="cls-1" d="M200,380.64a2.35,2.35,0,0,1-2.35-2.35V270.75a2.35,2.35,0,1,1,4.7,0V378.29A2.35,2.35,0,0,1,200,380.64Z"/><path class="cls-1" d="M217,312.72a2.38,2.38,0,0,1-1.38-.44,2.35,2.35,0,0,1-1-1.91V287.73a2.37,2.37,0,0,1,1.6-2.24l34-11.31a2.35,2.35,0,0,1,3.1,2.23v22.64a2.35,2.35,0,0,1-1.61,2.23l-34,11.32A2.34,2.34,0,0,1,217,312.72Zm2.35-23.3v17.69l29.25-9.76V279.67Zm31.61,9.63h0Z"/><path class="cls-1" d="M200,171.43a25,25,0,0,1-25-25,2.35,2.35,0,0,1,2.35-2.35h45.28a2.35,2.35,0,0,1,2.35,2.35A25,25,0,0,1,200,171.43Zm-20.15-22.65a20.29,20.29,0,0,0,40.3,0Z"/></g></svg>