<svg id="Capa_1" data-name="Capa 1" xmlns="http://www.w3.org/2000/svg" viewBox="0 0 400 400"><defs><style>.cls-1{fill:#fff;}</style></defs><title>ICONO_escuela</title><path class="cls-1" d="M257.82,315.23a2.35,2.35,0,0,1-2.36-2.35V122.51H144.54v8.66a2.36,2.36,0,1,1-4.71,0v-11a2.35,2.35,0,0,1,2.35-2.35H257.82a2.35,2.35,0,0,1,2.35,2.35V312.88A2.35,2.35,0,0,1,257.82,315.23Z"/><path class="cls-1" d="M142.18,315.23a2.35,2.35,0,0,1-2.35-2.35V180.73a2.36,2.36,0,1,1,4.71,0V312.88A2.35,2.35,0,0,1,142.18,315.23Z"/><path class="cls-1" d="M131.17,172.07H32.06a7.87,7.87,0,0,1-7.86-7.86V147.69a7.87,7.87,0,0,1,7.86-7.86h99.11a2.36,2.36,0,1,1,0,4.71H32.06a3.15,3.15,0,0,0-3.15,3.15v16.52a3.15,3.15,0,0,0,3.15,3.15h99.11a2.36,2.36,0,1,1,0,4.71Z"/><path class="cls-1" d="M367.94,172.07H268.83a2.36,2.36,0,1,1,0-4.71h99.11a3.15,3.15,0,0,0,3.15-3.15V147.69a3.15,3.15,0,0,0-3.15-3.15H268.83a2.36,2.36,0,1,1,0-4.71h99.11a7.87,7.87,0,0,1,7.86,7.86v16.52A7.87,7.87,0,0,1,367.94,172.07Z"/><path class="cls-1" d="M257.82,122.51H142.18a2.35,2.35,0,0,1-1.3-4.31L198.7,79.66a2.34,2.34,0,0,1,2.61,0l57.81,38.54a2.35,2.35,0,0,1-1.3,4.31ZM200,84.45l-50,33.36H250"/><path class="cls-1" d="M109.15,359.28H40.32a7.86,7.86,0,0,1-7.86-7.86V169.72a2.36,2.36,0,0,1,2.35-2.36h96.36a2.36,2.36,0,1,1,0,4.71h-94V351.42a3.15,3.15,0,0,0,3.15,3.15h68.83a2.36,2.36,0,0,1,0,4.71Z"/><path class="cls-1" d="M359.68,359.28H290.85a2.36,2.36,0,0,1,0-4.71h68.83a3.15,3.15,0,0,0,3.15-3.15V172.07h-94a2.36,2.36,0,1,1,0-4.71h96.35a2.36,2.36,0,0,1,2.36,2.36v181.7A7.87,7.87,0,0,1,359.68,359.28Z"/><path class="cls-1" d="M142.18,166.56a2.35,2.35,0,0,1-2.35-2.35V147.69a2.36,2.36,0,0,1,4.71,0v16.52A2.35,2.35,0,0,1,142.18,166.56Z"/><path class="cls-1" d="M120.16,232.64H54.09a2.36,2.36,0,0,1-2.36-2.36V202.75a2.36,2.36,0,0,1,2.36-2.35h66.07a2.35,2.35,0,0,1,2.35,2.35v27.53A2.36,2.36,0,0,1,120.16,232.64Zm-63.72-4.71h61.37V205.11H56.44Z"/><path class="cls-1" d="M87.12,232.64a2.36,2.36,0,0,1-2.35-2.36V202.75a2.36,2.36,0,0,1,4.71,0v27.53A2.36,2.36,0,0,1,87.12,232.64Z"/><path class="cls-1" d="M120.16,293.21H54.09a2.36,2.36,0,0,1-2.36-2.36V263.32A2.36,2.36,0,0,1,54.09,261h66.07a2.35,2.35,0,0,1,2.35,2.35v27.53A2.36,2.36,0,0,1,120.16,293.21ZM56.44,288.5h61.37V265.68H56.44Z"/><path class="cls-1" d="M87.12,293.21a2.36,2.36,0,0,1-2.35-2.36V263.32a2.36,2.36,0,0,1,4.71,0v27.53A2.36,2.36,0,0,1,87.12,293.21Z"/><path class="cls-1" d="M345.91,232.64H279.84a2.36,2.36,0,0,1-2.35-2.36V202.75a2.35,2.35,0,0,1,2.35-2.35h66.07a2.36,2.36,0,0,1,2.36,2.35v27.53A2.36,2.36,0,0,1,345.91,232.64Zm-63.72-4.71h61.37V205.11H282.19Z"/><path class="cls-1" d="M312.88,232.64a2.36,2.36,0,0,1-2.36-2.36V202.75a2.36,2.36,0,0,1,4.71,0v27.53A2.36,2.36,0,0,1,312.88,232.64Z"/><path class="cls-1" d="M345.91,293.21H279.84a2.36,2.36,0,0,1-2.35-2.36V263.32a2.35,2.35,0,0,1,2.35-2.35h66.07a2.36,2.36,0,0,1,2.36,2.35v27.53A2.36,2.36,0,0,1,345.91,293.21Zm-63.72-4.71h61.37V265.68H282.19Z"/><path class="cls-1" d="M312.88,293.21a2.36,2.36,0,0,1-2.36-2.36V263.32a2.36,2.36,0,0,1,4.71,0v27.53A2.36,2.36,0,0,1,312.88,293.21Z"/><path class="cls-1" d="M200,196.85a27.13,27.13,0,1,1,27.13-27.13A27.16,27.16,0,0,1,200,196.85Zm0-49.56a22.43,22.43,0,1,0,22.42,22.43A22.45,22.45,0,0,0,200,147.29Z"/><path class="cls-1" d="M211,172.07H200a2.35,2.35,0,0,1-2.35-2.35V156a2.35,2.35,0,0,1,4.7,0v11.41H211a2.36,2.36,0,0,1,0,4.71Z"/><path class="cls-1" d="M200,84a2.35,2.35,0,0,1-2.35-2.35V26.56a2.36,2.36,0,1,1,4.71,0V81.62A2.36,2.36,0,0,1,200,84Z"/><path class="cls-1" d="M238.54,62H200a2.36,2.36,0,0,1-2.35-2.36V32.06A2.35,2.35,0,0,1,200,29.71h38.54a2.36,2.36,0,0,1,2.36,2.35V59.59A2.36,2.36,0,0,1,238.54,62Zm-36.19-4.71h33.84V34.41H202.35Z"/><path class="cls-1" d="M230.28,326.24H169.72a2.35,2.35,0,0,1-2.36-2.35V278.2A28.27,28.27,0,0,1,195.6,250h8.8a28.27,28.27,0,0,1,28.24,28.24v45.69A2.35,2.35,0,0,1,230.28,326.24Zm-58.21-4.71h55.86V278.2a23.56,23.56,0,0,0-23.53-23.54h-8.8a23.56,23.56,0,0,0-23.53,23.54Z"/><path class="cls-1" d="M257.82,342.76H142.18a2.35,2.35,0,0,1-2.35-2.35V323.89a2.36,2.36,0,0,1,2.35-2.36H257.82a2.36,2.36,0,0,1,2.35,2.36v16.52A2.35,2.35,0,0,1,257.82,342.76Zm-113.28-4.71H255.46V326.24H144.54Z"/><path class="cls-1" d="M271.58,359.28H128.42a2.35,2.35,0,0,1-2.35-2.35V340.41a2.36,2.36,0,0,1,2.35-2.36H271.58a2.36,2.36,0,0,1,2.35,2.36v16.52A2.35,2.35,0,0,1,271.58,359.28Zm-140.81-4.71H269.23V342.76H130.77Z"/><path class="cls-1" d="M279.84,375.8H120.16a2.36,2.36,0,0,1-2.35-2.36V356.93a2.36,2.36,0,0,1,2.35-2.36H279.84a2.36,2.36,0,0,1,2.35,2.36v16.51A2.36,2.36,0,0,1,279.84,375.8Zm-157.33-4.71h155V359.28h-155Z"/></svg>