<svg id="Capa_1" data-name="Capa 1" xmlns="http://www.w3.org/2000/svg" viewBox="0 0 400 400"><defs><style>.cls-1{fill:#fff;}</style></defs><title>ICONO_ministerio</title><path class="cls-1" d="M106.42,311.63H67.72a2.36,2.36,0,0,1-2.36-2.35V187.2a2.36,2.36,0,0,1,2.36-2.36h38.7a2.36,2.36,0,0,1,0,4.71H70.07V306.93h34V211.64a2.35,2.35,0,1,1,4.7,0v97.64A2.35,2.35,0,0,1,106.42,311.63Z"/><path class="cls-1" d="M181.71,311.63H143a2.35,2.35,0,0,1-2.35-2.35V187.2a2.36,2.36,0,0,1,2.35-2.36h38.71a2.36,2.36,0,0,1,0,4.71H145.36V306.93h34V211.64a2.36,2.36,0,0,1,4.71,0v97.64A2.35,2.35,0,0,1,181.71,311.63Z"/><path class="cls-1" d="M257,311.63H218.29a2.35,2.35,0,0,1-2.35-2.35V187.2a2.36,2.36,0,0,1,2.35-2.36H257a2.36,2.36,0,0,1,0,4.71H220.65V306.93h34V211.64a2.36,2.36,0,0,1,4.71,0v97.64A2.35,2.35,0,0,1,257,311.63Z"/><path class="cls-1" d="M332.28,311.63h-38.7a2.35,2.35,0,0,1-2.35-2.35V187.2a2.36,2.36,0,0,1,2.35-2.36h38.7a2.36,2.36,0,1,1,0,4.71H295.93V306.93h34V211.64a2.36,2.36,0,0,1,4.71,0v97.64A2.36,2.36,0,0,1,332.28,311.63Z"/><path class="cls-1" d="M356,189.55H44a9.86,9.86,0,0,1-9.86-9.85V163.49A9.87,9.87,0,0,1,44,153.63H363.53a2.36,2.36,0,1,1,0,4.71H44a5.16,5.16,0,0,0-5.15,5.15V179.7A5.15,5.15,0,0,0,44,184.84H356a5.15,5.15,0,0,0,5.15-5.14v-3.07a2.36,2.36,0,0,1,4.71,0v3.07A9.86,9.86,0,0,1,356,189.55Z"/><path class="cls-1" d="M340.78,342.84H59.22a2.36,2.36,0,0,1-2.36-2.35V321.33a14.41,14.41,0,0,1,14.4-14.4H328.74a14.41,14.41,0,0,1,14.4,14.4v19.16A2.36,2.36,0,0,1,340.78,342.84Zm-279.21-4.7H338.43V321.33a9.71,9.71,0,0,0-9.69-9.7H71.26a9.71,9.71,0,0,0-9.69,9.7Z"/><path class="cls-1" d="M354.79,374.05H45.21A11.1,11.1,0,0,1,34.11,363V349.23a11.1,11.1,0,0,1,11.1-11.09H363.53a2.35,2.35,0,1,1,0,4.7H45.21a6.4,6.4,0,0,0-6.39,6.39V363a6.4,6.4,0,0,0,6.39,6.39H354.79a6.4,6.4,0,0,0,6.39-6.39v-.89a2.36,2.36,0,1,1,4.71,0V363A11.1,11.1,0,0,1,354.79,374.05Z"/><path class="cls-1" d="M348.82,158.34H51.18a2.36,2.36,0,0,1-1.53-4.14L198.47,26.51a2.36,2.36,0,0,1,3.06,0L350.35,154.2a2.36,2.36,0,0,1-1.53,4.14ZM57.54,153.63H342.46L200,31.4Z"/><path class="cls-1" d="M200,126.63a24.2,24.2,0,1,1,24.19-24.2A24.22,24.22,0,0,1,200,126.63ZM200,83a19.49,19.49,0,1,0,19.49,19.48A19.51,19.51,0,0,0,200,83Z"/><path class="cls-1" d="M284.13,102.84a2.35,2.35,0,0,1-2.35-2.36V32.55a2.36,2.36,0,0,1,4.71,0v67.93A2.36,2.36,0,0,1,284.13,102.84Z"/><path class="cls-1" d="M320.69,68.35H284.13A2.35,2.35,0,0,1,281.78,66V41.37A2.36,2.36,0,0,1,284.13,39h36.56A2.36,2.36,0,0,1,323,41.37V66A2.35,2.35,0,0,1,320.69,68.35Zm-34.2-4.71h31.84V43.72H286.49Z"/></svg>