<svg id="Capa_1" data-name="Capa 1" xmlns="http://www.w3.org/2000/svg" viewBox="0 0 73.15 71.49"><title>Compartir_LOGOS</title><path d="M35.33,29.28c0-3.88,1-7,3.31-9.71A10.87,10.87,0,0,1,50,16.41a5.76,5.76,0,0,0,3.25-.23c1.53-.52,2.92-1.43,4.43-2a2,2,0,0,1,1.75.18,2.23,2.23,0,0,1,.29,1.9c-.55,1.5-1.34,2.91-2.06,4.41,4.68.23,4.71.45,2.47,4.51a7.92,7.92,0,0,0-.74,4.42c1.23,12.06-7.78,26.6-23.06,27.73a43.89,43.89,0,0,1-19.9-2.9,10.4,10.4,0,0,1-3-1.78,2.37,2.37,0,0,1-.67-2c.09-.41,1.06-.8,1.68-.9,2.69-.41,5.41-.61,8.08-1.1a12.28,12.28,0,0,0,3-1.39c-2.77-1.59-5.6-2.95-8.12-4.74s-2.11-2.7.51-3.72c-1.55-1.66-3.24-3.29-4.69-5.12a9.34,9.34,0,0,1-1.35-3.2c-.8-2.68-.14-3.33,2.92-2.68-.2-.69-.37-1.27-.53-1.84A9.81,9.81,0,0,1,15,18.38c1.23-2.29,2.42-2.35,3.77-.13a21.53,21.53,0,0,0,10.88,9.41C31.36,28.32,33.22,28.69,35.33,29.28ZM20.79,41.82c2.65.83,5.36,1.63,8,2.53.67.23,1.58.67,1.74,1.21a2.35,2.35,0,0,1-.77,2,67.89,67.89,0,0,1-6.14,4.06,12,12,0,0,1-2.86.87,35.94,35.94,0,0,0,16.37,1.67c12.53-1.48,19.76-13.27,19.31-23.53-.1-2.19,0-4.38,0-6.1-1-.61-2.66-1.09-2.8-1.84-.2-1.06.72-2.34,1.41-4.2-2.35,2.14-4.27,1.61-6.49.84-2.94-1-5.62,0-7.71,2.38a10.1,10.1,0,0,0-2.3,8.21c.19,1.7-.46,2.38-2.2,2.28a24.53,24.53,0,0,1-18.2-9.37c-.3-.36-.64-.68-1-1l-.55.24c.41,1.6.75,3.22,1.24,4.79.36,1.18.91,2.3,1.38,3.45L15.53,31.7c.92,2.09,2.85,3.41,5,4.53,1.15.6,2.21,1.38,3.31,2.08Z"/></svg>